<?xml version="1.0" encoding="iso-8859-1"?>
<!-- Generator: Adobe Illustrator 24.0.1, SVG Export Plug-In . SVG Version: 6.00 Build 0)  -->
<svg version="1.1" id="&#x56FE;&#x5C42;_1" xmlns="http://www.w3.org/2000/svg" xmlns:xlink="http://www.w3.org/1999/xlink" x="0px"
	 y="0px" viewBox="0 0 128 128" style="enable-background:new 0 0 128 128;" xml:space="preserve">
<g>
	<path id="&#x8DEF;&#x5F84;_6" d="M50.243,97.028c20.711-3.302,36.641-23.403,36.641-47.72c0-26.629-19.096-48.206-42.652-48.206
		S1.58,22.678,1.58,49.293c0,24.317,15.932,44.418,36.641,47.72l-3.47,3.393c-0.64,0.632-0.646,1.662-0.014,2.302
		c0.316,0.32,0.751,0.495,1.201,0.483h6.239c1.019,3.972,1.247,11.884-9.754,18.519c-1.403,0.848-1.852,2.674-1.004,4.076
		c0.538,0.889,1.501,1.432,2.54,1.432c0.541-0.001,1.072-0.148,1.537-0.426c12.889-7.757,13.667-17.667,12.645-23.601h4.411
		c0.899,0.022,1.646-0.689,1.668-1.589c0.011-0.448-0.163-0.881-0.481-1.197L50.243,97.028z M30.994,14.355
		c-0.228,0.182-22.855,18.031-16.631,41.907c0.413,1.584-0.533,3.203-2.115,3.621c-0.244,0.059-0.495,0.09-0.746,0.091
		c-1.351,0.002-2.533-0.909-2.876-2.216C1.381,30.049,26.292,10.479,27.357,9.658c1.298-1.004,3.165-0.766,4.17,0.533
		c1.004,1.298,0.766,3.165-0.533,4.17L30.994,14.355z"/>
	<path id="&#x8DEF;&#x5F84;_7" d="M127.392,65.149c0-20.999-15.064-38.027-33.645-38.027c-3.01,0.01-6.001,0.477-8.871,1.385
		c2.636,6.612,3.985,13.667,3.972,20.786c0,17.392-7.791,32.731-19.63,41.786c4.967,6.171,12.016,10.316,19.823,11.656l-2.769,2.709
		c-0.503,0.497-0.509,1.307-0.012,1.811c0.248,0.251,0.588,0.389,0.94,0.381h4.276c0.761,2.86,1.108,8.962-7.365,14.061
		c-1.403,0.848-1.852,2.674-1.004,4.076c0.538,0.889,1.501,1.432,2.54,1.432c0.541-0.001,1.072-0.148,1.537-0.426
		c9.727-5.858,11.276-13.649,10.362-19.143h2.769c0.706,0.019,1.293-0.537,1.313-1.242c0.01-0.356-0.129-0.7-0.384-0.949
		l-2.769-2.709C114.808,100.162,127.392,84.337,127.392,65.149z M114.853,46.782c0.8-0.743,2.05-0.702,2.8,0.091
		c0.493,0.517,11.793,12.965,1.993,34.085c-0.327,0.696-1.026,1.14-1.795,1.141c-0.289-0.002-0.574-0.064-0.837-0.182
		c-0.989-0.465-1.418-1.64-0.959-2.632c8.689-18.715-1.187-29.596-1.293-29.703C114.019,48.782,114.059,47.532,114.853,46.782z"/>
</g>
</svg>
