<?xml version="1.0" encoding="iso-8859-1"?>
<!-- Generator: Adobe Illustrator 24.0.1, SVG Export Plug-In . SVG Version: 6.00 Build 0)  -->
<svg version="1.1" id="&#x56FE;&#x5C42;_1" xmlns="http://www.w3.org/2000/svg" xmlns:xlink="http://www.w3.org/1999/xlink" x="0px"
	 y="0px" viewBox="0 0 128 128" style="enable-background:new 0 0 128 128;" xml:space="preserve">
<path id="&#x8DEF;&#x5F84;_5" d="M47.409,32.324h30.404c9.412,0,16.587-20.41,16.587-20.41c0-6.107-0.616-10.738-11.053-11.053
	S70.403,8.135,62.899,8.135S51.353,2.131,41.887,0.835S30.834,5.787,30.834,11.888c0,0,7.171,20.41,16.587,20.41L47.409,32.324z
	 M79.481,38.633H47.409c-35.521,0-44.246,69.777-44.246,69.777c0,9.16,7.428,18.37,16.587,18.37h87.325
	c9.16,0,16.587-9.211,16.587-18.37c0,0-8.723-69.775-44.233-69.775L79.481,38.633z M83.124,92.257
	c2.125-0.036,3.877,1.658,3.913,3.783c0.036,2.125-1.658,3.877-3.783,3.913c-0.043,0.001-0.087,0.001-0.13,0H67.396v10.178
	c0.036,2.125-1.658,3.877-3.783,3.913c-2.125,0.036-3.877-1.658-3.913-3.783c-0.001-0.043-0.001-0.087,0-0.13V99.954H43.817
	c-2.125,0.036-3.877-1.658-3.913-3.783c-0.036-2.125,1.658-3.877,3.783-3.913c0.043-0.001,0.087-0.001,0.13,0h15.792v-4.914H43.817
	c-2.125,0.036-3.877-1.658-3.913-3.783c-0.036-2.125,1.658-3.877,3.783-3.913c0.043-0.001,0.087-0.001,0.13,0h10.66L43.56,60.109
	c-1.063-1.853-0.422-4.216,1.43-5.279c1.853-1.063,4.216-0.422,5.279,1.43l13.187,23.322h0.668l13.2-23.349
	c1.063-1.853,3.426-2.493,5.279-1.43c1.853,1.063,2.493,3.426,1.43,5.279l0,0L73.079,79.583h10.045
	c2.125-0.036,3.877,1.658,3.913,3.783c0.036,2.125-1.658,3.877-3.783,3.913c-0.043,0.001-0.087,0.001-0.13,0H67.396v4.914
	L83.124,92.257z"/>
</svg>
