<svg xmlns="http://www.w3.org/2000/svg" width="31.852" height="27.217" viewBox="0 0 31.852 27.217">
  <path id="icon3" d="M1.151,71.879A1.168,1.168,0,0,1,2.312,73.04V96.773H30.735a1.162,1.162,0,0,1,0,2.323H1.151a1.148,1.148,0,0,1-.815-.335A1.168,1.168,0,0,1,0,97.945V73.04A1.137,1.137,0,0,1,1.151,71.879Zm26.681,1.686a2.53,2.53,0,1,1-.022,5.059l-4.467,8.119A2.526,2.526,0,1,1,18.573,87.8l-4.322-4.389a2.581,2.581,0,0,1-1.642.067L9.594,88.017a2.527,2.527,0,1,1-1.988-.972H7.572l3.462-4.914a2.533,2.533,0,0,1-.235-.849l-.011-.246a2.525,2.525,0,1,1,4.948.715l3.931,4.021a2.512,2.512,0,0,1,1.809-.391l4.311-7.807a2.52,2.52,0,0,1-.223-2.647A2.566,2.566,0,0,1,27.831,73.565Zm0,0" transform="translate(0 -71.879)"/>
</svg>
