<svg xmlns="http://www.w3.org/2000/svg" width="35.75" height="33" viewBox="0 0 35.75 33">
  <defs>
    <style>
      .cls-1 {
        fill: #ff7e45;
      }
    </style>
  </defs>
  <path id="phb" class="cls-1" d="M40.7,92.393a4.125,4.125,0,0,1,4.125,4.125v5.5a4.125,4.125,0,0,1-4.125,4.125H36.571V96.518A4.125,4.125,0,0,1,40.7,92.393Zm27.5-5.5a4.125,4.125,0,0,1,4.125,4.125v11a4.125,4.125,0,0,1-4.125,4.125H64.071V91.018A4.125,4.125,0,0,1,68.2,86.893Zm-13.75-13.75a4.125,4.125,0,0,1,4.125,4.125v24.75a4.125,4.125,0,0,1-4.125,4.125H50.321V77.268A4.125,4.125,0,0,1,54.446,73.143Z" transform="translate(-36.571 -73.143)"/>
</svg>
